<svg width="300" height="80" xmlns="http://www.w3.org/2000/svg">
 <g>
  <title>background</title>
  <rect fill="#fff" id="canvas_background" height="82" width="302" y="-1" x="-1"/>
  <g display="none" overflow="visible" y="0" x="0" height="100%" width="100%" id="canvasGrid">
   <rect fill="url(#gridpattern)" stroke-width="0" y="1" x="1" height="480" width="640"/>
  </g>
 </g>
 <g>
  <title>Layer 1</title>
  <style transform="matrix(0.08293072396573198,0,0,0.08293072396573198,0,0) " type="text/css">.st0{fill:black;}</style>
  <g stroke="null" id="svg_12">
   <g stroke="null" transform="matrix(0.7477639060149925,0,0,0.7477639060149925,-2119.9565080248212,-1664.1585664670786) " id="svg_5">
    <path stroke="null" id="svg_6" d="m3015.461143,2256.485723l0,19.8c1.3,0 3.1,-0.2 4.6,-1.5c1.4,-1.3 2.6,-3.7 2.6,-8.5c0,-4.7 -1.2,-7.3 -2.6,-8.6c-1.5,-1.1 -3.2,-1.2 -4.6,-1.2z" class="st0"/>
    <path stroke="null" id="svg_7" d="m2906.261143,2256.785723l0,20.1c3,0 4.8,-0.5 5.9,-2.1c1.1,-1.5 1.3,-3.9 1.3,-7.6c0,-3.7 -0.3,-6.4 -1.3,-8c-1.1,-1.7 -2.9,-2.4 -5.9,-2.4z" class="st0"/>
    <path stroke="null" id="svg_8" d="m2960.861143,2260.185723c-1,-3.2 -2.9,-3.5 -6.2,-3.5l0,47.2c3.3,0 5.2,-0.4 6.2,-3.6c0.4,-1.5 0.8,-3.9 0.9,-7.1c0.1,-3.2 0.1,-7.5 0.1,-12.9c0,-5.5 0,-9.7 -0.1,-12.9c-0.1,-3.2 -0.5,-5.6 -0.9,-7.2z" class="st0"/>
    <polygon stroke="null" id="svg_9" points="3115.3611755371094,2267.485870361328 3114.8611755371094,2267.485870361328 3114.5611267089844,2269.185821533203 3111.8611755371094,2289.785919189453 3118.3611755371094,2289.785919189453 3115.6612243652344,2269.185821533203 " class="st0"/>
    <path stroke="null" id="svg_10" d="m2835.061143,2226.285723l0,108.7l400.1,0l0,-108.7l-400.1,0zm42.1,42.6c1.4,2.5 3.3,5.2 5.2,8c2.2,3.4 4.5,6.8 6.2,10.2c1.7,3.4 2.9,6.8 2.9,10.5c0,4.5 -0.7,8.6 -2.8,11.7c-2.1,3.1 -5.4,5.1 -10.7,5.1c-6.2,0 -9.7,-2.4 -11.6,-6c-2,-3.6 -2.4,-8.5 -2.4,-13.5l9.5,-0.9c0,2.8 0.1,5.6 0.8,7.7c0.6,2.2 1.7,3.6 3.8,3.6c2.9,0 3.9,-3.1 3.9,-7.4c0,-2.2 -1.1,-4.7 -2.5,-7.4c-0.8,-1.3 -1.6,-2.6 -2.5,-4c-1.9,-2.7 -3.9,-5.8 -6.1,-9.2c-2.2,-3.4 -3.8,-6.8 -4.7,-10.4c-0.5,-1.7 -0.8,-3.6 -0.8,-5.4c0,-3.6 0.8,-7.6 2.9,-10.6c2.1,-2.9 5.2,-5 9.8,-5.1c5.8,-0.1 9.2,2.4 11.1,5.9c1.9,3.6 2.4,8.1 2.4,11.8l-9.5,0.9c0,-2.2 -0.1,-4.6 -0.7,-6.6c-0.6,-1.8 -1.6,-3.1 -3.1,-3.1c-2.5,0.1 -3.3,2.7 -3.3,6.6c-0.2,2.7 0.8,5.1 2.2,7.6zm40.8,13.7c-3.2,3.1 -7.4,4.4 -11.6,4.4l0,26.8l-9.8,0l0,-67l9.7,0c4.2,0 8.4,1.1 11.6,4.2c3.2,3.1 5.4,8.2 5.4,15.8c0,7.7 -2.1,12.7 -5.3,15.8zm19.8,31.1l-9.7,0l0,-66.9l9.7,0l0,66.9zm31.2,-6.9c-2.6,5.1 -7.4,6.9 -16.4,6.9l-7.6,0l0,-66.9l7.6,0c9,0 13.8,1.8 16.4,6.9c2.5,5.1 2.9,13.5 2.9,26.6c0,13.1 -0.4,21.4 -2.9,26.5zm31.5,-49.9l-12.5,0l0,17.6l9,0l0,10.7l-9,0l0,18.4l12.5,0l0,10.1l-22.1,0l0,-66.9l22.1,0l0,10.1zm22.6,56.8l-5,-28.2l-2.6,0l0,28.2l-9.7,0l0,-66.9l9.7,0c11.6,0 16.5,6.6 16.5,19.3c0,6.6 -1.7,12.7 -5.4,15.2l6.2,32.4l-9.7,0zm72.3,-46.9c-0.1,-0.1 -0.1,-0.2 -0.2,-0.3c-0.6,-1.8 -1.9,-2.9 -3.7,-3.6c-2.6,-0.9 -5.3,-1.9 -8,-2.8c-0.3,-0.1 -0.6,-0.1 -0.9,0c-0.9,0.4 -1.9,0.7 -2.8,1c-1.4,0.5 -2.8,1 -4.1,1.5c-0.2,0.1 -0.5,0.1 -0.6,0.4c0.2,0 0.4,0 0.6,0c1.8,0 3.6,0 5.3,0c0.4,0 0.8,0.1 1.1,0.3c1.6,1.1 3.1,2.2 4.7,3.2c2.4,1.5 4.8,2.9 7.2,4.3c0.7,0.4 1,0.9 1,1.6c0,0.6 0,1.2 0.1,1.8c0.2,1.5 0.1,2.9 -0.2,4.4c-0.5,2.7 -1.3,5.2 -2.4,7.7c-1.2,2.8 -2.4,5.5 -3.7,8.2c-2,4.2 -4,8.5 -6.1,12.7c-1,2 -2.2,4 -3.3,6c0,0 -0.1,0 -0.1,0.1c0.4,-1.5 0.7,-2.9 1.3,-4.3c1.7,-4.1 3.4,-8.2 5.1,-12.3c1.4,-3.4 2.8,-6.8 4.1,-10.3c1.2,-3.2 2,-6.5 2.5,-9.9c0.1,-0.9 0.1,-1.8 -0.1,-2.7c-0.4,-1.7 -1.4,-2.9 -3,-3.8c-0.5,-0.3 -1,-0.5 -1.5,-0.8c-1.8,-1 -3.6,-2.1 -5.4,-3.1c-0.4,-0.2 -0.7,-0.4 -1.2,-0.4c-0.9,-0.1 -1.8,-0.2 -2.7,-0.2c-0.6,-0.1 -1.3,-0.1 -1.9,-0.2c-0.5,0 -1.1,-0.1 -1.8,0c0.4,0.2 0.6,0.3 0.9,0.4c1.5,0.6 2.9,1.1 4.4,1.7c0.5,0.2 0.9,0.5 1.3,1c0.3,0.4 0.6,0.8 0.9,1.2c0.5,0.6 0.9,1.3 1.5,1.8c0.7,0.7 0.9,1.4 0.8,2.2c-0.1,1 -0.2,2 -0.3,3c-0.1,1 -0.2,2.1 -0.3,3.1c-0.1,1.4 -0.3,2.9 -0.4,4.3c-0.1,1.4 -0.3,2.9 -0.4,4.3c-0.1,1.5 -0.3,3 -0.5,4.4c-0.2,1.7 -0.4,3.4 -0.6,5.2c-0.3,2.3 -0.9,4.6 -1.7,6.8c-1.8,5.2 -9.8,19.1 -10.4,19.9c-0.3,-0.2 4.5,-9.2 5.7,-12.3c1.9,-4.9 3,-9.9 3.7,-15c0.3,-1.8 0.4,-3.6 0.6,-5.5c0.2,-1.6 0.3,-3.2 0.4,-4.7c0,-0.5 0.1,-1.1 0.1,-1.6c0.1,-1.2 0.2,-2.4 0.3,-3.5c0.1,-1.2 0.2,-2.4 0.3,-3.6c0.1,-1.5 0.2,-2.9 0.2,-4.4c0,-0.5 -0.1,-0.9 -0.2,-1.4c-0.5,-1.9 -1.7,-3.1 -3.6,-3.7c-0.6,-0.2 -1.3,-0.4 -1.9,-0.6c-0.9,-0.3 -1.8,-0.6 -2.6,-1c-0.1,-0.1 -0.2,-0.1 -0.4,-0.2c0,0.2 0,0.3 0.1,0.3c0.2,0.8 0.6,1.8 1.1,2.4c0.4,0.6 0.7,1.3 0.6,2c-0.1,0.9 -0.2,1.5 -0.4,2.5c-0.3,1.8 -0.6,3.6 -1.2,5.4c-1,3.4 -2.1,6.4 -3.2,9.7l0,1.1c-0.1,0.2 -0.2,0.4 -0.3,0.6c0,0 0,0 0,0c0,0 0,0 0,0c0,0 0,0 0,0c0,0 0,0 -0.1,0c0,0 0,0 0,-0.1l-0.1,0c0,0 0,0 0,0.1c0,0 0,0 -0.1,0c0,0 0,0 0,0c0,0 0,0 0,0c0,0 0,0 0,0c-0.1,-0.2 -0.2,-0.4 -0.3,-0.6l0,-1.1c-1,-3.3 -2.1,-6.4 -3.2,-9.7c-0.5,-1.8 -0.9,-3.6 -1.2,-5.4c-0.1,-0.9 -0.2,-1.5 -0.4,-2.5c-0.1,-0.7 0.1,-1.4 0.6,-2c0.5,-0.7 0.9,-1.7 1.1,-2.4c0,-0.1 0,-0.2 0.1,-0.3c-0.2,0.1 -0.3,0.1 -0.4,0.2c-0.8,0.5 -1.7,0.8 -2.6,1c-0.6,0.2 -1.3,0.4 -1.9,0.6c-1.9,0.7 -3.2,1.9 -3.6,3.7c-0.1,0.4 -0.2,0.9 -0.2,1.4c0,1.5 0.1,2.9 0.2,4.4c0.1,1.2 0.2,2.4 0.3,3.6c0.1,1.2 0.2,2.4 0.3,3.5c0,0.5 0.1,1.1 0.1,1.6c0.1,1.6 0.2,3.2 0.4,4.7c0.2,1.8 0.4,3.6 0.6,5.5c0.7,5.1 1.9,10.1 3.7,15c1.2,3.1 6,12.1 5.7,12.3c-0.7,-0.8 -8.7,-14.7 -10.4,-19.9c-0.7,-2.2 -1.3,-4.5 -1.7,-6.8c-0.2,-1.7 -0.4,-3.4 -0.6,-5.2c-0.2,-1.5 -0.3,-3 -0.5,-4.4c-0.1,-1.4 -0.3,-2.9 -0.4,-4.3c-0.1,-1.4 -0.3,-2.9 -0.4,-4.3c-0.1,-1 -0.2,-2.1 -0.3,-3.1c-0.1,-1 -0.2,-2 -0.3,-3c-0.1,-0.9 0.1,-1.6 0.8,-2.2c0.6,-0.5 1,-1.2 1.5,-1.8c0.3,-0.4 0.6,-0.8 0.9,-1.2c0.3,-0.4 0.7,-0.8 1.3,-1c1.5,-0.5 2.9,-1.1 4.4,-1.7c0.3,-0.1 0.5,-0.2 0.9,-0.4c-0.7,-0.1 -1.2,0 -1.8,0c-0.7,0 -1.3,0.1 -1.9,0.2c-0.9,0.1 -1.8,0.2 -2.7,0.2c-0.4,0 -0.8,0.2 -1.2,0.4c-1.8,1 -3.6,2.1 -5.4,3.1c-0.5,0.3 -1,0.5 -1.5,0.8c-1.6,0.9 -2.6,2.1 -3,3.8c-0.2,0.9 -0.2,1.8 -0.1,2.7c0.5,3.4 1.3,6.7 2.5,9.9c1.3,3.4 2.7,6.9 4.1,10.3c1.7,4.1 3.4,8.2 5.1,12.3c0.6,1.4 0.9,2.8 1.3,4.3c-0.1,0 -0.1,0 -0.1,-0.1c-1.1,-2 -2.3,-4 -3.3,-6c-2.1,-4.2 -4.1,-8.4 -6.1,-12.7c-1.3,-2.7 -2.5,-5.5 -3.7,-8.2c-1.1,-2.5 -1.9,-5.1 -2.4,-7.7c-0.3,-1.5 -0.4,-2.9 -0.2,-4.4c0.1,-0.6 0.1,-1.2 0.1,-1.8c0,-0.7 0.3,-1.2 1,-1.6c2.4,-1.4 4.8,-2.8 7.2,-4.3c1.6,-1 3.2,-2.1 4.7,-3.2c0.4,-0.2 0.7,-0.3 1.1,-0.3c1.8,0 3.6,0 5.3,0c0.2,0 0.4,0 0.6,0c-0.1,-0.3 -0.4,-0.3 -0.6,-0.4c-1.4,-0.5 -2.8,-1 -4.1,-1.5c-0.9,-0.3 -1.9,-0.7 -2.8,-1c-0.3,-0.1 -0.6,-0.1 -0.9,0c-2.7,0.9 -5.3,1.8 -8,2.8c-1.8,0.7 -3.1,1.8 -3.7,3.6c0,0.1 -0.1,0.2 -0.2,0.3c-0.1,-0.1 -0.2,-0.2 -0.3,-0.3c-1.7,-2.3 -3.4,-4.6 -5.1,-6.8c-1.8,-2.4 -1.7,-4.2 -1.9,-5.8l1.1,-7.8l3.4,-5.9l-2,6.5l-0.5,7.2c0.5,3.3 2.1,5.1 3.3,6.6c0.4,0.4 0.8,0.8 1.2,1.2c0.3,0.3 0.7,0.4 1.1,0.2c0.6,-0.2 1.2,-0.5 1.8,-0.7c2.4,-0.9 4.8,-1.8 7.2,-2.6c1.1,-0.4 2.1,-0.8 3.2,-1.1c2.6,1.4 5.3,2.5 8.4,2.9c-0.3,-0.6 -0.7,-1 -1.1,-1.4c-1.2,-1.3 -2.6,-2.4 -4.1,-3.4c-0.6,-0.4 -1.2,-0.8 -1.8,-1.2c-0.3,-0.2 -0.6,-0.3 -1,-0.2c-1.3,0.1 -2.6,0.2 -3.8,0.3c-1.1,0.1 -2.3,0.2 -3.4,0.4c-0.6,0.1 -1.1,0.4 -1.6,0.6c-0.4,0.2 -0.9,0.8 -1.4,0.9c-0.2,-0.3 -0.3,-0.9 -0.4,-1.2c-0.7,-1.2 -1.4,-2.5 -2.1,-3.7c-0.4,-0.7 -0.7,-1.4 -0.9,-2.1l-0.4,-1.1c0,-0.3 -0.1,-0.7 -0.1,-1c0,-0.1 0,-0.2 0,-0.3c0.2,-1 0.1,-1.9 -0.2,-2.9c0.2,-0.1 0.3,-0.1 0.5,-0.2c2.9,-0.7 12.2,-5.9 15.1,-6.4c1.8,-0.3 7.9,-1.2 9.4,-1c-0.9,0.1 -1.7,0.3 -2.4,0.4c-4.6,0.5 -12.7,4.1 -17.7,7.7c-0.3,0.2 -0.7,0.2 -1,0.3c-0.6,0.2 -0.9,0.5 -1,1.1c-0.1,0.5 -0.2,1.5 -0.2,1.5l0.2,1.8c0,0 1,1.8 2.1,3c0.3,0.3 0.6,0.5 1.1,0.4c1.2,-0.2 2.4,-0.3 3.6,-0.4c1.2,-0.1 2.4,-0.3 3.6,-0.4c1.1,-0.1 2.1,-0.2 3.2,-0.3c0.5,0 0.8,0.1 1.1,0.5c0.5,0.6 1.1,1.2 1.6,1.8c1.4,1.6 2.9,3 4.6,4.4c0.3,0.2 0.6,0.5 1,0.8c0.2,-0.5 -0.1,-1 0.4,-1.4c0.4,-0.3 1,-0.5 1.6,-0.5c-0.1,0.4 -0.3,0.8 -0.4,1.1c-0.1,0.4 0.2,0.7 0,1.2c0.2,-0.1 0.3,-0.2 0.4,-0.2c0.1,-0.1 0.3,-0.1 0.4,-0.2l0.8,0c0.1,0 0.3,0.1 0.4,0.2c0.1,0.1 0.2,0.1 0.4,0.2c-0.2,-0.5 0.1,-0.8 0,-1.2c-0.1,-0.4 -0.2,-0.7 -0.4,-1.1c0.6,0.1 1.2,0.2 1.6,0.5c0.5,0.3 0.2,0.9 0.4,1.4c0.4,-0.3 0.7,-0.5 1,-0.8c1.7,-1.3 3.2,-2.7 4.6,-4.4c0.5,-0.6 1,-1.2 1.6,-1.8c0.3,-0.3 0.7,-0.5 1.1,-0.5c1.1,0.1 2.1,0.2 3.2,0.3c1.2,0.1 2.4,0.3 3.6,0.4c1.2,0.1 2.4,0.2 3.6,0.4c0.5,0.1 0.8,0 1.1,-0.4c1.1,-1.2 2.1,-3 2.1,-3l0.2,-1.8c0,0 -0.1,-1 -0.2,-1.5c-0.1,-0.5 -0.4,-0.9 -1,-1.1c-0.3,-0.1 -0.7,-0.1 -1,-0.3c-5.9,-3.7 -13.2,-7.3 -17.7,-7.7c-0.8,-0.1 -1.5,-0.2 -2.4,-0.4c1.5,-0.2 7.5,0.6 9.4,1c2.9,0.6 12.2,5.7 15.1,6.4c0.1,0 0.3,0.1 0.5,0.2c-0.3,1 -0.3,1.9 -0.2,2.9c0,0.1 0,0.2 0,0.3c0,0.3 0,0.7 -0.1,1l-0.4,1.1c-0.2,0.7 -0.5,1.4 -0.9,2.1c-0.7,1.2 -1.4,2.5 -2.1,3.7c-0.1,0.3 -0.3,0.9 -0.4,1.2c-0.5,-0.1 -0.9,-0.7 -1.4,-0.9c-0.5,-0.2 -1.1,-0.5 -1.6,-0.6c-1.1,-0.2 -2.3,-0.3 -3.4,-0.4c-1.3,-0.1 -2.6,-0.2 -3.8,-0.3c-0.4,0 -0.7,0 -1,0.2c-0.6,0.4 -1.2,0.8 -1.8,1.2c-1.5,1 -2.9,2.1 -4.1,3.4c-0.4,0.4 -0.8,0.9 -1.1,1.4c3.1,-0.4 5.8,-1.5 8.4,-2.9c1.1,0.4 2.1,0.8 3.2,1.1c2.4,0.9 4.8,1.7 7.2,2.6c0.6,0.2 1.2,0.5 1.8,0.7c0.4,0.2 0.8,0.1 1.1,-0.2c0.4,-0.4 0.9,-0.8 1.2,-1.2c1.2,-1.5 2.9,-3.4 3.3,-6.6l-0.5,-7.2l-2,-6.5l3.4,5.9l1.1,7.8c-0.2,1.7 -0.1,3.4 -1.9,5.8c-1.7,2.3 -3.4,4.6 -5.1,6.8c0.2,0.1 0.1,0.2 0,0.3zm26.1,46.4l-1.7,-13.3l-9.2,0l-1.7,13.3l-9.2,0l9.7,-65.3l11.5,0l9.7,65.3l-9.1,0zm36.9,-6.7c-2.5,5 -7.3,6.7 -16,6.7l-7.4,0l0,-65.2l7.4,0c8.7,0 13.5,1.8 16,6.7c2.4,5 2.8,13.1 2.8,25.9c0,12.8 -0.3,20.9 -2.8,25.9zm20.1,-36.9c1.4,2.5 3.2,5.1 5.1,7.8c2.2,3.3 4.4,6.7 6,9.9c1.7,3.3 2.8,6.7 2.8,10.2c0,4.4 -0.7,8.4 -2.7,11.5c-2,3 -5.2,5 -10.4,5c-6,0 -9.4,-2.3 -11.4,-5.9c-1.9,-3.6 -2.4,-8.3 -2.4,-13.1l9.3,-0.9c0,2.8 0.1,5.5 0.8,7.5c0.6,2.1 1.7,3.6 3.7,3.6c2.8,0 3.8,-3 3.8,-7.2c0,-2.1 -1,-4.6 -2.4,-7.2c-0.8,-1.2 -1.6,-2.6 -2.4,-3.9c-1.8,-2.7 -3.8,-5.7 -5.9,-9c-2.1,-3.3 -3.7,-6.7 -4.6,-10.1c-0.5,-1.7 -0.8,-3.5 -0.8,-5.2c0,-3.6 0.8,-7.4 2.8,-10.3c2,-2.8 5.1,-4.9 9.5,-5c5.7,-0.1 9,2.3 10.8,5.8c1.8,3.6 2.4,7.9 2.4,11.5l-9.3,0.9c0,-2.1 -0.1,-4.5 -0.7,-6.4c-0.6,-1.8 -1.6,-3 -3.1,-3c-2.4,0.1 -3.2,2.7 -3.2,6.5c-0.1,2.2 0.9,4.5 2.3,7zm26.9,43.6l-9.2,0l0,-9.9l9.2,0l0,9.9z" class="st0"/>
    <path stroke="null" id="svg_11" d="m3150.461143,2260.985723c-1,-3.1 -2.8,-3.5 -6,-3.5l0,46.1c3.2,0 5.1,-0.4 6,-3.6c0.4,-1.5 0.8,-3.8 0.9,-6.9c0.1,-3.1 0.1,-7.3 0.1,-12.6c0,-5.3 0,-9.5 -0.1,-12.6c-0.2,-3 -0.5,-5.3 -0.9,-6.9z" class="st0"/>
   </g>
  </g>
 </g>
</svg>