<?xml version="1.0" encoding="utf-8"?>
<!-- Generator: Adobe Illustrator 19.1.0, SVG Export Plug-In . SVG Version: 6.00 Build 0)  -->
<svg xmlns="http://www.w3.org/2000/svg" xmlns:xlink="http://www.w3.org/1999/xlink" version="1.1" id="Layer_1" x="0px" y="0px" viewBox="0 0 463 163.2" style="enable-background:new 0 0 463 163.2;" xml:space="preserve">
<style type="text/css">
	.st0{fill:black;}
</style>
<g>
	<path class="st0" d="M211.9,57.5v19.8c1.3,0,3.1-0.2,4.6-1.5c1.4-1.3,2.6-3.7,2.6-8.5c0-4.7-1.2-7.3-2.6-8.6   C215,57.6,213.3,57.5,211.9,57.5z"/>
	<path class="st0" d="M102.7,57.8v20.1c3,0,4.8-0.5,5.9-2.1c1.1-1.5,1.3-3.9,1.3-7.6c0-3.7-0.3-6.4-1.3-8   C107.5,58.5,105.7,57.8,102.7,57.8z"/>
	<path class="st0" d="M157.3,61.2c-1-3.2-2.9-3.5-6.2-3.5v47.2c3.3,0,5.2-0.4,6.2-3.6c0.4-1.5,0.8-3.9,0.9-7.1   c0.1-3.2,0.1-7.5,0.1-12.9c0-5.5,0-9.7-0.1-12.9C158.1,65.2,157.7,62.8,157.3,61.2z"/>
	<polygon class="st0" points="311.8,68.5 311.3,68.5 311,70.2 308.3,90.8 314.8,90.8 312.1,70.2  "/>
	<path class="st0" d="M31.5,27.3v108.7h400.1V27.3H31.5z M73.6,69.9c1.4,2.5,3.3,5.2,5.2,8c2.2,3.4,4.5,6.8,6.2,10.2   c1.7,3.4,2.9,6.8,2.9,10.5c0,4.5-0.7,8.6-2.8,11.7c-2.1,3.1-5.4,5.1-10.7,5.1c-6.2,0-9.7-2.4-11.6-6c-2-3.6-2.4-8.5-2.4-13.5   l9.5-0.9c0,2.8,0.1,5.6,0.8,7.7c0.6,2.2,1.7,3.6,3.8,3.6c2.9,0,3.9-3.1,3.9-7.4c0-2.2-1.1-4.7-2.5-7.4c-0.8-1.3-1.6-2.6-2.5-4   c-1.9-2.7-3.9-5.8-6.1-9.2c-2.2-3.4-3.8-6.8-4.7-10.4c-0.5-1.7-0.8-3.6-0.8-5.4c0-3.6,0.8-7.6,2.9-10.6c2.1-2.9,5.2-5,9.8-5.1   c5.8-0.1,9.2,2.4,11.1,5.9c1.9,3.6,2.4,8.1,2.4,11.8l-9.5,0.9c0-2.2-0.1-4.6-0.7-6.6c-0.6-1.8-1.6-3.1-3.1-3.1   c-2.5,0.1-3.3,2.7-3.3,6.6C71.2,65,72.2,67.4,73.6,69.9z M114.4,83.6c-3.2,3.1-7.4,4.4-11.6,4.4v26.8H93V47.8h9.7   c4.2,0,8.4,1.1,11.6,4.2c3.2,3.1,5.4,8.2,5.4,15.8C119.7,75.5,117.6,80.5,114.4,83.6z M134.2,114.7h-9.7V47.8h9.7V114.7z    M165.4,107.8c-2.6,5.1-7.4,6.9-16.4,6.9h-7.6V47.8h7.6c9,0,13.8,1.8,16.4,6.9c2.5,5.1,2.9,13.5,2.9,26.6   C168.3,94.4,167.9,102.7,165.4,107.8z M196.9,57.9h-12.5v17.6h9v10.7h-9v18.4h12.5v10.1h-22.1V47.8h22.1V57.9z M219.5,114.7   l-5-28.2h-2.6v28.2h-9.7V47.8h9.7c11.6,0,16.5,6.6,16.5,19.3c0,6.6-1.7,12.7-5.4,15.2l6.2,32.4H219.5z M291.8,67.8   c-0.1-0.1-0.1-0.2-0.2-0.3c-0.6-1.8-1.9-2.9-3.7-3.6c-2.6-0.9-5.3-1.9-8-2.8c-0.3-0.1-0.6-0.1-0.9,0c-0.9,0.4-1.9,0.7-2.8,1   c-1.4,0.5-2.8,1-4.1,1.5c-0.2,0.1-0.5,0.1-0.6,0.4c0.2,0,0.4,0,0.6,0c1.8,0,3.6,0,5.3,0c0.4,0,0.8,0.1,1.1,0.3   c1.6,1.1,3.1,2.2,4.7,3.2c2.4,1.5,4.8,2.9,7.2,4.3c0.7,0.4,1,0.9,1,1.6c0,0.6,0,1.2,0.1,1.8c0.2,1.5,0.1,2.9-0.2,4.4   c-0.5,2.7-1.3,5.2-2.4,7.7c-1.2,2.8-2.4,5.5-3.7,8.2c-2,4.2-4,8.5-6.1,12.7c-1,2-2.2,4-3.3,6c0,0-0.1,0-0.1,0.1   c0.4-1.5,0.7-2.9,1.3-4.3c1.7-4.1,3.4-8.2,5.1-12.3c1.4-3.4,2.8-6.8,4.1-10.3c1.2-3.2,2-6.5,2.5-9.9c0.1-0.9,0.1-1.8-0.1-2.7   c-0.4-1.7-1.4-2.9-3-3.8c-0.5-0.3-1-0.5-1.5-0.8c-1.8-1-3.6-2.1-5.4-3.1c-0.4-0.2-0.7-0.4-1.2-0.4c-0.9-0.1-1.8-0.2-2.7-0.2   c-0.6-0.1-1.3-0.1-1.9-0.2c-0.5,0-1.1-0.1-1.8,0c0.4,0.2,0.6,0.3,0.9,0.4c1.5,0.6,2.9,1.1,4.4,1.7c0.5,0.2,0.9,0.5,1.3,1   c0.3,0.4,0.6,0.8,0.9,1.2c0.5,0.6,0.9,1.3,1.5,1.8c0.7,0.7,0.9,1.4,0.8,2.2c-0.1,1-0.2,2-0.3,3c-0.1,1-0.2,2.1-0.3,3.1   c-0.1,1.4-0.3,2.9-0.4,4.3c-0.1,1.4-0.3,2.9-0.4,4.3c-0.1,1.5-0.3,3-0.5,4.4c-0.2,1.7-0.4,3.4-0.6,5.2c-0.3,2.3-0.9,4.6-1.7,6.8   c-1.8,5.2-9.8,19.1-10.4,19.9c-0.3-0.2,4.5-9.2,5.7-12.3c1.9-4.9,3-9.9,3.7-15c0.3-1.8,0.4-3.6,0.6-5.5c0.2-1.6,0.3-3.2,0.4-4.7   c0-0.5,0.1-1.1,0.1-1.6c0.1-1.2,0.2-2.4,0.3-3.5c0.1-1.2,0.2-2.4,0.3-3.6c0.1-1.5,0.2-2.9,0.2-4.4c0-0.5-0.1-0.9-0.2-1.4   c-0.5-1.9-1.7-3.1-3.6-3.7c-0.6-0.2-1.3-0.4-1.9-0.6c-0.9-0.3-1.8-0.6-2.6-1c-0.1-0.1-0.2-0.1-0.4-0.2c0,0.2,0,0.3,0.1,0.3   c0.2,0.8,0.6,1.8,1.1,2.4c0.4,0.6,0.7,1.3,0.6,2c-0.1,0.9-0.2,1.5-0.4,2.5c-0.3,1.8-0.6,3.6-1.2,5.4c-1,3.4-2.1,6.4-3.2,9.7l0,1.1   c-0.1,0.2-0.2,0.4-0.3,0.6c0,0,0,0,0,0c0,0,0,0,0,0c0,0,0,0,0,0c0,0,0,0-0.1,0c0,0,0,0,0-0.1h-0.1c0,0,0,0,0,0.1c0,0,0,0-0.1,0   c0,0,0,0,0,0c0,0,0,0,0,0c0,0,0,0,0,0c-0.1-0.2-0.2-0.4-0.3-0.6l0-1.1c-1-3.3-2.1-6.4-3.2-9.7c-0.5-1.8-0.9-3.6-1.2-5.4   c-0.1-0.9-0.2-1.5-0.4-2.5c-0.1-0.7,0.1-1.4,0.6-2c0.5-0.7,0.9-1.7,1.1-2.4c0-0.1,0-0.2,0.1-0.3c-0.2,0.1-0.3,0.1-0.4,0.2   c-0.8,0.5-1.7,0.8-2.6,1c-0.6,0.2-1.3,0.4-1.9,0.6c-1.9,0.7-3.2,1.9-3.6,3.7c-0.1,0.4-0.2,0.9-0.2,1.4c0,1.5,0.1,2.9,0.2,4.4   c0.1,1.2,0.2,2.4,0.3,3.6c0.1,1.2,0.2,2.4,0.3,3.5c0,0.5,0.1,1.1,0.1,1.6c0.1,1.6,0.2,3.2,0.4,4.7c0.2,1.8,0.4,3.6,0.6,5.5   c0.7,5.1,1.9,10.1,3.7,15c1.2,3.1,6,12.1,5.7,12.3c-0.7-0.8-8.7-14.7-10.4-19.9c-0.7-2.2-1.3-4.5-1.7-6.8c-0.2-1.7-0.4-3.4-0.6-5.2   c-0.2-1.5-0.3-3-0.5-4.4c-0.1-1.4-0.3-2.9-0.4-4.3c-0.1-1.4-0.3-2.9-0.4-4.3c-0.1-1-0.2-2.1-0.3-3.1c-0.1-1-0.2-2-0.3-3   c-0.1-0.9,0.1-1.6,0.8-2.2c0.6-0.5,1-1.2,1.5-1.8c0.3-0.4,0.6-0.8,0.9-1.2c0.3-0.4,0.7-0.8,1.3-1c1.5-0.5,2.9-1.1,4.4-1.7   c0.3-0.1,0.5-0.2,0.9-0.4c-0.7-0.1-1.2,0-1.8,0c-0.7,0-1.3,0.1-1.9,0.2c-0.9,0.1-1.8,0.2-2.7,0.2c-0.4,0-0.8,0.2-1.2,0.4   c-1.8,1-3.6,2.1-5.4,3.1c-0.5,0.3-1,0.5-1.5,0.8c-1.6,0.9-2.6,2.1-3,3.8c-0.2,0.9-0.2,1.8-0.1,2.7c0.5,3.4,1.3,6.7,2.5,9.9   c1.3,3.4,2.7,6.9,4.1,10.3c1.7,4.1,3.4,8.2,5.1,12.3c0.6,1.4,0.9,2.8,1.3,4.3c-0.1,0-0.1,0-0.1-0.1c-1.1-2-2.3-4-3.3-6   c-2.1-4.2-4.1-8.4-6.1-12.7c-1.3-2.7-2.5-5.5-3.7-8.2c-1.1-2.5-1.9-5.1-2.4-7.7c-0.3-1.5-0.4-2.9-0.2-4.4c0.1-0.6,0.1-1.2,0.1-1.8   c0-0.7,0.3-1.2,1-1.6c2.4-1.4,4.8-2.8,7.2-4.3c1.6-1,3.2-2.1,4.7-3.2c0.4-0.2,0.7-0.3,1.1-0.3c1.8,0,3.6,0,5.3,0c0.2,0,0.4,0,0.6,0   c-0.1-0.3-0.4-0.3-0.6-0.4c-1.4-0.5-2.8-1-4.1-1.5c-0.9-0.3-1.9-0.7-2.8-1c-0.3-0.1-0.6-0.1-0.9,0c-2.7,0.9-5.3,1.8-8,2.8   c-1.8,0.7-3.1,1.8-3.7,3.6c0,0.1-0.1,0.2-0.2,0.3c-0.1-0.1-0.2-0.2-0.3-0.3c-1.7-2.3-3.4-4.6-5.1-6.8c-1.8-2.4-1.7-4.2-1.9-5.8   l1.1-7.8l3.4-5.9l-2,6.5l-0.5,7.2c0.5,3.3,2.1,5.1,3.3,6.6c0.4,0.4,0.8,0.8,1.2,1.2c0.3,0.3,0.7,0.4,1.1,0.2   c0.6-0.2,1.2-0.5,1.8-0.7c2.4-0.9,4.8-1.8,7.2-2.6c1.1-0.4,2.1-0.8,3.2-1.1c2.6,1.4,5.3,2.5,8.4,2.9c-0.3-0.6-0.7-1-1.1-1.4   c-1.2-1.3-2.6-2.4-4.1-3.4c-0.6-0.4-1.2-0.8-1.8-1.2c-0.3-0.2-0.6-0.3-1-0.2c-1.3,0.1-2.6,0.2-3.8,0.3c-1.1,0.1-2.3,0.2-3.4,0.4   c-0.6,0.1-1.1,0.4-1.6,0.6c-0.4,0.2-0.9,0.8-1.4,0.9c-0.2-0.3-0.3-0.9-0.4-1.2c-0.7-1.2-1.4-2.5-2.1-3.7c-0.4-0.7-0.7-1.4-0.9-2.1   l-0.4-1.1c0-0.3-0.1-0.7-0.1-1c0-0.1,0-0.2,0-0.3c0.2-1,0.1-1.9-0.2-2.9c0.2-0.1,0.3-0.1,0.5-0.2c2.9-0.7,12.2-5.9,15.1-6.4   c1.8-0.3,7.9-1.2,9.4-1c-0.9,0.1-1.7,0.3-2.4,0.4c-4.6,0.5-12.7,4.1-17.7,7.7c-0.3,0.2-0.7,0.2-1,0.3c-0.6,0.2-0.9,0.5-1,1.1   c-0.1,0.5-0.2,1.5-0.2,1.5l0.2,1.8c0,0,1,1.8,2.1,3c0.3,0.3,0.6,0.5,1.1,0.4c1.2-0.2,2.4-0.3,3.6-0.4c1.2-0.1,2.4-0.3,3.6-0.4   c1.1-0.1,2.1-0.2,3.2-0.3c0.5,0,0.8,0.1,1.1,0.5c0.5,0.6,1.1,1.2,1.6,1.8c1.4,1.6,2.9,3,4.6,4.4c0.3,0.2,0.6,0.5,1,0.8   c0.2-0.5-0.1-1,0.4-1.4c0.4-0.3,1-0.5,1.6-0.5c-0.1,0.4-0.3,0.8-0.4,1.1c-0.1,0.4,0.2,0.7,0,1.2c0.2-0.1,0.3-0.2,0.4-0.2   c0.1-0.1,0.3-0.1,0.4-0.2h0.8c0.1,0,0.3,0.1,0.4,0.2c0.1,0.1,0.2,0.1,0.4,0.2c-0.2-0.5,0.1-0.8,0-1.2c-0.1-0.4-0.2-0.7-0.4-1.1   c0.6,0.1,1.2,0.2,1.6,0.5c0.5,0.3,0.2,0.9,0.4,1.4c0.4-0.3,0.7-0.5,1-0.8c1.7-1.3,3.2-2.7,4.6-4.4c0.5-0.6,1-1.2,1.6-1.8   c0.3-0.3,0.7-0.5,1.1-0.5c1.1,0.1,2.1,0.2,3.2,0.3c1.2,0.1,2.4,0.3,3.6,0.4c1.2,0.1,2.4,0.2,3.6,0.4c0.5,0.1,0.8,0,1.1-0.4   c1.1-1.2,2.1-3,2.1-3l0.2-1.8c0,0-0.1-1-0.2-1.5c-0.1-0.5-0.4-0.9-1-1.1c-0.3-0.1-0.7-0.1-1-0.3c-5.9-3.7-13.2-7.3-17.7-7.7   c-0.8-0.1-1.5-0.2-2.4-0.4c1.5-0.2,7.5,0.6,9.4,1c2.9,0.6,12.2,5.7,15.1,6.4c0.1,0,0.3,0.1,0.5,0.2c-0.3,1-0.3,1.9-0.2,2.9   c0,0.1,0,0.2,0,0.3c0,0.3,0,0.7-0.1,1l-0.4,1.1c-0.2,0.7-0.5,1.4-0.9,2.1c-0.7,1.2-1.4,2.5-2.1,3.7c-0.1,0.3-0.3,0.9-0.4,1.2   c-0.5-0.1-0.9-0.7-1.4-0.9c-0.5-0.2-1.1-0.5-1.6-0.6c-1.1-0.2-2.3-0.3-3.4-0.4c-1.3-0.1-2.6-0.2-3.8-0.3c-0.4,0-0.7,0-1,0.2   c-0.6,0.4-1.2,0.8-1.8,1.2c-1.5,1-2.9,2.1-4.1,3.4c-0.4,0.4-0.8,0.9-1.1,1.4c3.1-0.4,5.8-1.5,8.4-2.9c1.1,0.4,2.1,0.8,3.2,1.1   c2.4,0.9,4.8,1.7,7.2,2.6c0.6,0.2,1.2,0.5,1.8,0.7c0.4,0.2,0.8,0.1,1.1-0.2c0.4-0.4,0.9-0.8,1.2-1.2c1.2-1.5,2.9-3.4,3.3-6.6   l-0.5-7.2l-2-6.5l3.4,5.9l1.1,7.8c-0.2,1.7-0.1,3.4-1.9,5.8c-1.7,2.3-3.4,4.6-5.1,6.8C292,67.6,291.9,67.7,291.8,67.8z    M317.9,114.2l-1.7-13.3H307l-1.7,13.3h-9.2l9.7-65.3h11.5l9.7,65.3H317.9z M354.8,107.5c-2.5,5-7.3,6.7-16,6.7h-7.4V49h7.4   c8.7,0,13.5,1.8,16,6.7c2.4,5,2.8,13.1,2.8,25.9C357.6,94.4,357.3,102.5,354.8,107.5z M374.9,70.6c1.4,2.5,3.2,5.1,5.1,7.8   c2.2,3.3,4.4,6.7,6,9.9c1.7,3.3,2.8,6.7,2.8,10.2c0,4.4-0.7,8.4-2.7,11.5c-2,3-5.2,5-10.4,5c-6,0-9.4-2.3-11.4-5.9   c-1.9-3.6-2.4-8.3-2.4-13.1l9.3-0.9c0,2.8,0.1,5.5,0.8,7.5c0.6,2.1,1.7,3.6,3.7,3.6c2.8,0,3.8-3,3.8-7.2c0-2.1-1-4.6-2.4-7.2   c-0.8-1.2-1.6-2.6-2.4-3.9c-1.8-2.7-3.8-5.7-5.9-9c-2.1-3.3-3.7-6.7-4.6-10.1c-0.5-1.7-0.8-3.5-0.8-5.2c0-3.6,0.8-7.4,2.8-10.3   c2-2.8,5.1-4.9,9.5-5c5.7-0.1,9,2.3,10.8,5.8c1.8,3.6,2.4,7.9,2.4,11.5l-9.3,0.9c0-2.1-0.1-4.5-0.7-6.4c-0.6-1.8-1.6-3-3.1-3   c-2.4,0.1-3.2,2.7-3.2,6.5C372.5,65.8,373.5,68.1,374.9,70.6z M401.8,114.2h-9.2v-9.9h9.2V114.2z"/>
	<path class="st0" d="M346.9,62c-1-3.1-2.8-3.5-6-3.5v46.1c3.2,0,5.1-0.4,6-3.6c0.4-1.5,0.8-3.8,0.9-6.9c0.1-3.1,0.1-7.3,0.1-12.6   c0-5.3,0-9.5-0.1-12.6C347.6,65.9,347.3,63.6,346.9,62z"/>
</g>
</svg>
